<?xml version="1.0" encoding="UTF-8"?>
<svg id="Layer_1" data-name="Layer 1" xmlns="http://www.w3.org/2000/svg" viewBox="0 0 83.52 74.71">
  <defs>
    <style>
      .cls-1 {
        fill: #e4ca21;
      }

      .cls-2 {
        fill: #fc0;
      }
    </style>
  </defs>
  <path class="cls-2" d="m49.66,57.15c-.45-.14-.82-.47-1.34-.45-.01-1.78-.02-3.56-.05-5.34-.02-1.16.28-.99-1.16-1.02-.35,0-.49.09-.48.42.02.69,0,1.38,0,2.06,0,.15.05.38-.2.37-.43-.01-.77.25-1.19.24-.57,0-.98.27-1.33.65-.62.68-.74,1.46-.63,2.3-.59-.21-1.1-.59-1.8-.53-.63.05-.82.25-.91.81-.13.9.52,1.51.96,2.19.32.5.79.91.87,1.52,0,.05.04.1.08.14.92.79.8,1.97,1.34,2.89.46.78.61,1.65,1.07,2.42.04.07.06.17.06.26-.02.25.15.59-.25.67-.33.07-.42-.23-.57-.44-.49-.68-.8-1.39-.7-2.22.03-.26-.11-.5-.3-.72-.34-.38-.74-.72-.95-1.19-.11-.24-.39-.36-.69-.28-.28.07-.2.32-.2.5-.01.37.01.74,0,1.11-.03.43-.26.71-.79.65-.64-.07-1.2,0-1.64.49-.25.28-.59.21-.86-.01-.15-.13-.32-.21-.5-.26-.46-.15-.67,0-.69.42-.01.25.02.5-.01.74-.03.2-.21.37-.43.37-.24,0-.37-.19-.36-.4.02-.47,0-.93.18-1.4.45-1.2-.11-2.27-.72-3.29-.24-.4-1.38-.25-1.69.23-.25.39-.65.41-.99.4-.36-.02-.38-.41-.43-.67-.05-.27-.15-.42-.46-.45-.3-.03-.51.07-.57.33-.31,1.23-1.32,2.04-2.18,2.94-.39.4-.67.89-.58,1.49.07.43-.15.76-.48,1.08-.92.88-1.46,1.91-1.38,3.15.05.77-.16,1.44-.98,1.88-.59.31-.97.91-1.82.81-.7-.08-.9-.31-.71-.96.28-.93.82-1.7,1.66-2.28.52-.36.83-.77.76-1.39-.05-.44.23-.82.47-1.18.86-1.31,1.82-2.56,2.53-3.95.38-.74.92-1.43.92-2.3,0-.47-.19-.69-.77-.7-.91-.02-1.66.3-2.39.73-1.11.65-1.84,1.57-2.41,2.61-.4.72-.8,1.42-1.48,2-.89.77-1.5,1.74-1.98,2.77-.22.47-.61.77-1.1.97-.42.17-.74-.02-.78-.43-.06-.58.24-1.04.61-1.48,1.09-1.26,2.26-2.47,3.11-3.88.52-.86,1.27-1.55,1.92-2.32.37-.44.59-.93.73-1.46.09-.35.31-.64.49-.95.3.17.6.29.96.34.8.12,1.61,0,2.41.06.53.04.67-.14.67-.6-.02-2.12,0-4.23,0-6.35,0-1.02,0-1.01-1.14-.95-.32.02-.46.11-.45.41.01.63-.02,1.27.01,1.9.03.46-.08.66-.67.71-1.72.15-2.45.63-2.68,2.21-.02.15-.02.31-.03.47-.07-.21-.21-.28-.42-.14-.19.12-.41.16-.64.2-.01-.7-.06-1.4-.02-2.1.02-.44-.08-.7-.6-.73.09-.06.18-.13.28-.18.37-.16.56-.46.53-.79-.02-.31-.34-.46-.68-.55-.23-.06-.51-.03-.7-.2.12-.24.28-.45.52-.61.11-.08.2-.23,0-.28-.33-.08-.74-.21-.98.09-.46.55-.82,1.16-.94,1.86-.5.17-.85.04-.83-.36.04-.75-.29-.78-1.03-.6-1.11.27-1.96.98-2.95,1.44-.05.02-.05.12-.08.19-.35,0-.7.05-1.04.01-.61-.07-.92.1-.83.69-.81.07-1.47.39-1.98.97-.11-.03-.23-.04-.33-.09-.24-.1-.46-.23-.39-.51.06-.25.31-.21.53-.23.27-.02.54-.06.82-.08.26-.01.33-.14.33-.35,0-.2-.05-.35-.32-.35-.18,0-.36-.02-.52.03-.38.12-.73.07-1.08-.05.4-.38.8-.77,1.21-1.14.12-.11.26-.21.47-.19.61.06.97-.22,1.26-.68.62-.99,1.65-1.6,2.68-2.21.74-.44,1.55-.74,2.31-1.12.32-.16.5-.4.55-.7.06-.33-.08-.58-.52-.6-.58-.03-1.13.07-1.64.3-1.07.49-2.23.53-3.39.49-1.24-.04-2.47-.15-3.68.17-.07.02-.16.01-.24.01-2.2,0-4.35.44-6.53.64-.5.05-.99.05-1.47,0-.4-.04-.74-.24-.8-.6-.07-.37.33-.5.64-.57.5-.12,1.01-.24,1.55-.22,1.3.05,2.57.02,3.84-.38.91-.28,1.92-.19,2.88-.13,1.49.1,2.71-.41,3.84-1.17.45-.3.95-.64.95-1.25,0-.48-.3-.81-.83-.87-2.06-.25-4.13-.16-6.2-.1-.96.03-1.91.2-2.83-.27-.48-.24-1.03-.06-1.49.07-.84.25-1.65.45-2.56.29-.48-.08-.91-.24-1.1-.58-.22-.4.13-.77.49-.98.58-.34,1.21-.63,1.89-.76.74-.14,1.37.18,1.99.49.96.48,1.98.53,3.04.33.66-.13,1.28-.29,1.95.11.66.39,1.46.19,2.19.1.46-.06.92-.15,1.36-.3.48-.16.95-.09,1.38.04.32.09.57-.07.86-.04.15.02.2-.08.21-.2.03-.29,0-.54-.34-.72-.23-.12-.5-.32-.36-.6.12-.24.34-.48.69-.49.56-.02.96-.21,1.18-.7.21-.49-.07-.8-.38-1.16-.67-.78-1.49-1.32-2.56-1.54-.36-.07-.7-.21-1.05-.33-.22-.07-.36-.21-.47-.38-.09-.13-.18-.27,0-.42.15-.12.27-.18.46-.08.23.13.47.25.71.36.43.2.68.08.72-.35,0-.09,0-.18,0-.26-.03-.8,0-.87.85-1.06.48-.11.6-.41.76-.73.28-.58.53-.68,1.18-.43.38.15.75.31,1.08.53.23.15.48.23.77.16.13.18.07.38.07.57,0,2.38.02,4.77,0,7.15-.01,1.67.55,3.12,1.85,4.35,1.09,1.04,2.33,1.78,3.95,1.97.25.03.5.07.75.07,3.88,0,7.77,0,11.65,0,.28,0,.61.09.61-.35,0-2.58,0-5.16,0-7.73,0-.26-.09-.39-.41-.39-1.58,0-3.15,0-4.73,0-.34,0-.44.12-.44.41.01.81-.01,1.63.01,2.44.01.41-.11.55-.6.55-1.87-.02-3.74,0-5.62,0-.86,0-1.48-.5-1.49-1.25-.02-1.41,0-2.82.02-4.24.92-.09,1.27-.43,1.29-1.25.02-.68-.31-1.29-.59-1.88-.15-.31-.18-.78-.74-.83.01-.8.03-1.61.04-2.41,1,.29,1.94.72,2.97.92,1.05.21,2.11-.25,2.03-1.4-.07-.94-.65-1.57-1.31-2.17-.73-.66-1.44-1.32-1.67-2.27.65-.15,1.32-.05,1.97-.06-.01.18.08.29.25.38,1,.52,2.15.37,3.21.61.04.01.11-.04.16-.06.14,1.16.04,2.32.05,3.48,0,.37.09.54.55.53,1.48-.02,2.95-.02,4.43,0,.48,0,.61-.17.6-.57-.02-.92-.03-1.84,0-2.75.03-1.21-.24-2.34-.91-3.41-1.29-2.06-3.19-3.23-5.85-3.31-.9-.03-1.81-.02-2.72-.03.09-.22-.12-.28-.25-.36-.78-.48-1.45-1.05-2.05-1.71-.81-.87-1.93-1.44-2.97-2.07-1.12-.68-1.85-1.71-2.87-2.48-.22-.16-.16-.4-.1-.59.07-.22.31-.19.5-.18,1.17.05,2.18.44,3.04,1.16.83.7,1.74,1.28,2.83,1.62.61.19,1.16.49,1.49,1.05.23.4.62.69,1.14.71,1.47.05,2.6.8,3.76,1.46,1.04.59,1.97,1.32,2.86,2.07.28.24.61.23.93.2.54-.06.72-.32.53-.77-.3-.71-.81-1.29-1.5-1.72-.71-.44-1.11-1.08-1.58-1.71-.58-.78-.79-1.67-1.18-2.5-.32-.69-.78-1.29-1.32-1.85-.59-.61-.93-1.36-1.38-2.05-1.04-1.58-2.07-3.17-3.36-4.6-.42-.46-.7-1.01-.88-1.59-.11-.34-.26-.73.17-.95.42-.22.81.04,1.11.29.4.33.76.74.94,1.19.58,1.42,1.52,2.61,2.57,3.77.7.77,1.18,1.68,1.63,2.59.76,1.52,1.93,2.72,3.51,3.58.55.3,1.13.65,1.82.54.73-.12.98-.63.74-1.26-.91-2.37-2.28-4.53-3.68-6.68-.5-.77-.96-1.54-.89-2.5.04-.56-.6-.86-.94-1.27-.45-.54-1.12-.95-1.32-1.64-.13-.44-.43-.83-.47-1.3-.03-.34.07-.5.5-.54.89-.08,1.61.11,2.18.75.4.44,1.15.63,1.2,1.3.04.48.22.94.08,1.44-.11.41-.12.87.31,1.22.12.1.19.28.21.42.1.74.58,1.3,1.1,1.83.48.48.82.98.69,1.66-.13.69.33,1.22.69,1.75.29.43.67.83,1.06,1.19.74.68,1.01,1.55,1.4,2.39.09.19.05.55.53.49.43-.05.62-.28.72-.6.07-.23-.09-.57.38-.59.45-.02.84.04,1.08.47.24.43.6.74,1.19.83.57.09.93-.12,1.11-.53.54-1.22.92-2.46.44-3.79-.12-.33-.14-.69-.18-1.04-.05-.36.09-.64.53-.69.49-.06.53.27.54.58.01.3,0,.6.01.9.03.55.31.69.85.43.15-.07.29-.17.45-.24.45-.19.84-.15,1.12.26.35.51.86.73,1.53.71.87-.02,1.09.2,1.1.96,0,.46-.01.92,0,1.38,0,.2.01.4.26.49.26.1.49.02.64-.15.56-.63,1.15-1.25,1.61-1.94.3-.44.03-1,.1-1.51.08-.61.67-.96.88-1.5.05-.13.4-.14.53,0,.17.17.43.4.26.65-.52.75-.53,1.65-.97,2.44-.47.85-1.02,1.72-1.06,2.73,0,.11-.05.27-.14.33-.54.39-.71.97-1,1.5-.36.65-.93,1.2-1.4,1.79-.45.57-.54,1.13-.51,1.76-.25.02-.51.05-.76.05-1.97-.04-3.77.37-5.26,1.59-1.25,1.02-2.16,2.25-2.24,3.78-.1,1.83,0,3.67-.08,5.51-.04.79.35,1.2,1.02,1.53,2.38,1.16,4.6,2.56,6.96,3.74,1.27.63,2.45,1.39,3.7,2.05,1.6.85,1.61.83,1.54,2.5-.03.71-.6,1.24-1.38,1.25-1.93.01-3.86,0-5.79.01-.47,0-.55-.17-.55-.54.02-1.24,0-2.47,0-3.71q0-.72-.77-.72c-1.32,0-2.64.03-3.96-.01-.6-.02-.77.14-.77.68.03,2.91.03,5.83,0,8.74,0,.51.15.66.72.65,4.27-.08,8.54.13,12.81-.12.44.35,1.03.38,1.55.54,1.63.53,1.68,1.55.94,2.53-.71.94-1.11,1.08-2.26.62-.43-.17-.89-.27-1.34-.38-.36-.09-.47.11-.43.38.05.38.32.61.68.8,1.09.55,2.31.72,3.51.93.17.03.34.08.5.12.09.32-.25.54-.23.85-.16,0-.32-.03-.47-.02-1.43.15-2.78-.1-4.1-.58-.55-.2-1.08-.08-1.45.39-.69,0-1.37-.01-2.06.01-1.11.05-1.23.4-1.23,1.1,0,.93-.03,1.86-.05,2.79Zm-15.83-1.52c-.12.72.15,1.35.61,1.95.62.81,1.63.97,2.44.81,1.09-.22,1.9-1.02,1.95-1.73.04-.53.09-1.06-.02-1.58-.38-1.79-2.42-2.31-3.95-1.52-.86.44-1.15,1.19-1.03,2.08Zm6.52-21.14c.17-.44-.15-.63-.56-.82-.26-.12-.54-.19-.8-.33-.99-.53-1.35-.46-2.15.33-.32.31-.35.62-.16,1,.2.42.64.68.82,1.09.13.3.28.32.58.19.6-.25,1.21-.48,1.82-.7.39-.14.55-.37.45-.77Zm-9.34,21.24c0,.69.01,1.37,0,2.06,0,.32.13.45.49.42.16-.01.32-.02.47,0,.49.05.65-.15.64-.58-.03-1.11,0-2.22-.01-3.32-.01-1.11.25-.96-1.14-.98-.34,0-.44.11-.44.4.02.67,0,1.34,0,2Zm1.54-4.41c0-.56-.27-.85-.78-.84-.46,0-.84.35-.85.78,0,.42.48.91.89.89.43-.01.74-.37.74-.84Z"/>
  <path d="m56.1,47.07c-4.27.25-8.54.04-12.81.12-.57.01-.73-.14-.72-.65.03-2.91.03-5.83,0-8.74,0-.54.16-.7.77-.68,1.32.04,2.64.01,3.96.01q.77,0,.77.72c0,1.24.01,2.47,0,3.71,0,.37.08.54.55.54,1.93-.02,3.86,0,5.79-.01.79,0,1.35-.54,1.38-1.25.07-1.66.06-1.65-1.54-2.5-1.25-.66-2.43-1.42-3.7-2.05-2.37-1.18-4.59-2.58-6.96-3.74-.67-.33-1.06-.74-1.02-1.53.09-1.83-.02-3.67.08-5.51.09-1.54.99-2.76,2.24-3.78,1.5-1.22,3.29-1.63,5.26-1.59.25,0,.51-.03.76-.05,1.21.09,2.42.14,3.62-.02,1.56.13,3.12.09,4.69.02.54.12,1.1.06,1.64.08.22,0,.44-.02.56.2,0,.21-.02.42-.02.63,0,3.11-.01,6.21,0,9.32,0,.51-.17.67-.74.66-1.44-.03-2.88-.02-4.31,0-.44,0-.58-.12-.57-.52.02-1.57,0-3.14.02-4.71,0-.39-.13-.52-.57-.52-1.87.02-3.74,0-5.62.01-.98,0-1.53.5-1.54,1.38,0,.6.02,1.2-.01,1.8-.02.39.16.59.53.77,1.78.89,3.55,1.81,5.32,2.73,2.27,1.19,4.56,2.36,6.89,3.44.41.19.55.42.55.83-.03,1.92-.03,3.85-.05,5.77-.38.53-.45,1.16-.76,1.72-.88,1.6-2.25,2.63-4.13,3.16-.14.04-.25.1-.31.21Z"/>
  <path d="m28.28,25.26c-.66,0-1.32-.09-1.97.06-.58-.21-1.19-.11-1.79-.13-.29,0-.33.19-.33.4,0,.56-.01,1.13.01,1.69.04.98-.1,1.97.09,2.95-.01.8-.03,1.61-.04,2.41-.05,1.32-.13,2.64.04,3.96,0,1.41-.04,2.82-.02,4.24.01.76.63,1.25,1.49,1.25,1.87,0,3.75-.01,5.62,0,.48,0,.61-.14.6-.55-.03-.81,0-1.62-.01-2.44,0-.29.1-.41.44-.41,1.58,0,3.15,0,4.73,0,.32,0,.41.13.41.39,0,2.58,0,5.16,0,7.73,0,.44-.34.35-.61.35-3.88,0-7.77,0-11.65,0-.25,0-.5-.04-.75-.07-1.62-.19-2.86-.93-3.95-1.97-1.3-1.23-1.86-2.68-1.85-4.35.02-2.38,0-4.77,0-7.15,0-.19.06-.39-.07-.57-.1-.28.02-.56.03-.83.08-.53.06-1.06.03-1.59.14-.68.06-1.37.07-2.05.01-1.14,0-2.29,0-3.43,0-.36.03-.73-.13-1.08.15-.19.08-.41.08-.62,0-.9.03-1.8-.01-2.69-.03-.52.18-.65.74-.64,1.45.02,2.9-.02,4.36-.03,1.42.12,2.84.11,4.26.01.91,0,1.81,0,2.72.03,2.66.09,4.56,1.25,5.85,3.31.67,1.07.94,2.2.91,3.41-.02.92-.02,1.84,0,2.75.01.4-.12.57-.6.57-1.48-.02-2.95-.02-4.43,0-.47,0-.55-.16-.55-.53-.02-1.16.09-2.32-.05-3.48-.03-.39-.15-.69-.63-.85-1-.33-1.99-.2-2.99-.08Z"/>
  <path class="cls-2" d="m61.3,41.97c.01-1.92.02-3.85.05-5.77,0-.4-.13-.63-.55-.83-2.33-1.09-4.62-2.26-6.89-3.44-1.76-.92-3.53-1.84-5.32-2.73-.37-.19-.55-.38-.53-.77.03-.6,0-1.2.01-1.8.01-.88.56-1.37,1.54-1.38,1.87,0,3.74,0,5.62-.01.45,0,.58.13.57.52-.02,1.57,0,3.14-.02,4.71,0,.4.14.52.57.52,1.44-.02,2.88-.03,4.31,0,.57.01.75-.15.74-.66-.02-3.11,0-6.21,0-9.32,0-.21.02-.42.02-.63,1.76-.8,3.47-1.66,4.93-2.87.99-.82,2.19-1.37,3.32-2,1.09-.6,2.04-1.31,2.52-2.42.22-.5.66-.76,1.23-.86.6-.11,1.17-.26,1.71-.53.1-.05.22-.09.33-.1.29-.03.65-.08.81.17.17.26.03.58-.2.77-.6.51-1.16,1.05-1.72,1.59-.25.24-.63.28-.97.34-.89.15-1.4.76-1.94,1.31-.53.54-1.04,1.09-1.69,1.52-.08.05-.15.13-.24.15-1.54.29-2.44,1.41-3.58,2.22-.62.45-1.38.73-1.88,1.33-.73.85-.82,1.81-.72,2.81.06.59.67.7,1.17.78.39.07.51.24.6.53.35,1.14,1.1,1.66,2.51,1.13,1.02-.38,2.01-.42,3.06-.1.84.26,1.68.23,2.4-.29.46-.32.96-.38,1.5-.38,1.02,0,2.05.04,3.07,0,.39-.02.77-.21,1.14-.34.72-.25,1.43-.45,2.21-.21.48.15.41.48.45.81.04.34-.15.48-.45.58-.44.15-.89.12-1.34.07-1.23-.13-2.46-.21-3.64.27-.02,0-.04.02-.05.02-1.26-.13-2.35.39-3.51.69-.96.24-1.99.09-2.98.28-.61.11-1.23.21-1.82.36-.45.11-.6.52-.65.92-.03.21.1.35.34.35.27,0,.53,0,.81-.07.79-.23,1.62-.4,2.43-.18.95.26,1.81,1.88,1.61,2.75-.17.72-.83.88-1.43,1.08-.54.18-1.14.24-1.71.33-.54.09-.88.38-.86.78.02.43.32.6.96.63.74.03,1.49-.17,2.23.07.53.17.78.65.62,1.26-.12.46-.55.36-.91.37-.96.03-1.81-.42-2.74-.51-.17-.02-.35-.05-.52-.05-.43-.01-.74.16-.95.5-.2.34.08.57.25.81.18.25.45.44.64.68.23.29.33.66.14.95-.19.29-.6.3-.96.19-.34-.1-.69-.06-1.04-.14-.49-.11-.81.16-.88.62-.02.16-.01.32-.02.48-.02.42-.22.66-.73.62-.31-.02-.63-.02-.94,0-.42.02-.64.23-.65.61,0,.26,0,.53,0,.79-.02.44-.32.6-.74.38-.19-.1-.35-.22-.58-.23Z"/>
  <path class="cls-2" d="m59.22,20.1c-1.56.07-3.13.11-4.69-.02.3-.41.72-.71,1.08-1.07,1.01-1,2.16-1.91,2.88-3.14.22-.38.61-.67.98-.95.46-.34.86-.72,1.14-1.19.4-.68,1.16-1.1,1.59-1.76.1-.15.31-.19.53-.18.2.01.41,0,.48.22.06.2-.1.28-.24.38-.44.31-.97.53-1.21,1.04-.13.27-.44.57-.11.8.32.23.85.1,1.05-.14.6-.68,1.33-1.17,2.17-1.58.36-.17.37-.57.42-.89.09-.52.32-.96.67-1.37.25-.3.54-.52.97-.62.93-.23,1.7-.66,2.19-1.45.69-1.1,1.49-2.09,2.75-2.75,1.29-.67,2.06-1.79,2.86-2.87.29-.39.67-.66,1.18-.48.49.18.7.57.65,1.06-.06.62-.32,1.11-.95,1.42-.22.11-.42.25-.63.38-.48.29-.66.62-.23,1.09.18.19.17.42-.05.62-.23.21-.4.11-.62-.02-.83-.49-1.38-.37-1.91.35-.25.34-.51.67-.9.89-.69.38-1.16.99-1.8,1.43-.38.26-.62.71-.88,1.1-.6.89-1.32,1.65-2.42,2.08-.66.26-1.05.81-1.41,1.31-.59.81-1.31,1.48-2.16,2.04-.75.49-1.17,1.16-1.59,1.89-.45.78-.84,1.63-1.71,2.15-.09.05-.13.13-.09.23Z"/>
  <path class="cls-2" d="m23.8,20.11c-1.45.01-2.9.05-4.36.03-.55,0-.76.12-.74.64.05.9.02,1.79.01,2.69,0,.21.06.42-.08.62-.5-.34-1.08-.53-1.64-.77-.53-.22-1.05-.47-1.01-1.14.03-.42-.38-.55-.74-.63-.54-.13-1.09-.25-1.65-.31-.69-.08-1.11-.5-1.54-.89-.23-.21-.3-.49.02-.74.35-.28.71-.24,1.07-.03.55.31,1.11.59,1.79.45.54-.11.68-.4.31-.77-.37-.37-.61-.65.04-.94.06-.03.09-.12.11-.18.13-.56.55-.54,1.04-.44.64.12.97.67,1.57.87.37.13.71.33,1.13.37.49.05.78-.18.62-.58-.09-.22-.17-.47-.42-.62-1.06-.64-1.58-1.61-2.03-2.62-.02-.05-.02-.1-.04-.15-.07-.19-.37-.38-.12-.56.25-.18.56-.07.83.07.46.25.76.56.9,1.05.19.64.51,1.24,1,1.75.19.19.42.41.8.26.42-.16.32-.47.25-.72-.06-.19,0-.33.11-.42.14-.11.33-.04.49.04.43.21.65.61.88.95.3.45.59.9.93,1.33.33.42.32.92.46,1.39Z"/>
  <path class="cls-2" d="m48.23,58c.75.74.98,1.74,1.58,2.55.28.38.56.75.98,1.02.88.57,1.43,1.39,2.03,2.17.42.55.87,1.08,1.59,1.37.32.13.6.39.74.67.31.63.8,1.16,1.22,1.71.48.63,1.13,1.16,1.75,1.7.36.31.66.63.88,1.02.36.64.72.75,1.48.52.28-.09.55-.18.8.07.26.27.09.49-.1.69-.21.21-.05.37.07.52.21.25.47.46.77.63.56.33.84.82.83,1.42,0,.25-.02.48-.36.58-.34.11-.6.12-.91-.12-.36-.29-.63-.64-.82-1.01-.51-.95-1.37-1.61-2.24-2.26-.73-.54-1.29-1.19-1.72-1.91-.56-.92-1.25-1.65-2.34-2.11-.89-.37-1.26-1.17-1.39-2-.07-.44-.29-.72-.67-.93-.54-.3-1.03-.63-1.33-1.15-.02-.03-.05-.05-.07-.08-.36-.38-.95-.59-1.1-.36-.21.34-.06.65.23.95.26.27.52.52.83.74.18.13.42.32.18.52-.2.18-.46.05-.61-.13-.58-.7-1.3-1.3-1.77-2.08-.25-.42-.54-.81-.96-1.13-.38-.29-.66-.63-.86-1.05-.2-.44-.52-.82-.96-1.12-.44-.3-.65-.72-.76-1.19.82,0,1.64-.01,2.46-.03.2,0,.45.06.53-.2Z"/>
  <path class="cls-2" d="m72.76,47.71c-.61,0-1.03-.3-1.54-.37-.31-.04-.48.03-.66.2-.66.65-1.22.79-2.07.36-.82-.42-1.69-.28-2.52-.26-1.41.04-2.34-.48-2.99-1.55-.19-.32-.4-.64-.66-.94-.37-.43-.21-.89.37-1.01.71-.15,1.45-.34,2.19-.14.32.09.61-.02.84-.13.62-.27,1.19-.23,1.79.01.57.23,1.2.17,1.8.13.89-.06,1.55.16,1.97.92.41.75,1.13,1.29,1.78,1.86.19.17.38.36.28.6-.11.25-.39.32-.6.32Z"/>
  <path d="m59.02,53.46c-.02-.3.33-.53.23-.85.17-.46.36-.91.51-1.37.09-.28.25-.38.58-.39,1.53-.05,1.53-.06,2.03,1.23.26.68.42,1.4.86,2.02-.05.29.07.54.2.8.28,1.01.66,1.98,1.1,2.95.1.22,0,.29-.22.3-.49,0-.98.01-1.48.02-.2,0-.32-.08-.41-.24-.08-.14-.14-.28-.21-.42-.22-.46-.13-1.22-.57-1.35-.71-.21-1.55-.09-2.34-.08-.21,0-.33.12-.38.33-.12.45-.29.89-.45,1.33-.11.31-.69.53-.98.35-.18-.11-.04-.23,0-.36.51-1.42,1.02-2.85,1.52-4.27Zm1.91.8c.07-.41-.26-.72-.33-1.1-.02-.09,0-.24-.18-.22-.12.01-.23.09-.26.2-.08.3-.26.59-.26.91-.4.24-.45.68-.43,1,.02.25.53.09.83.13.04,0,.08,0,.12,0,1.03,0,1.07-.07.56-.9,0-.01-.03-.02-.05-.03Z"/>
  <path d="m48.23,58c-.08.27-.33.2-.53.2-.82.01-1.64.02-2.46.03-1.02-.3-1.7-.89-1.95-1.84-.11-.84,0-1.62.63-2.3.35-.38.76-.65,1.33-.65.42,0,.77-.25,1.19-.24.25,0,.2-.22.2-.37,0-.69.02-1.38,0-2.06-.01-.33.12-.43.48-.42,1.44.03,1.14-.15,1.16,1.02.03,1.78.03,3.56.05,5.34-.27.42-.16.86-.09,1.3Zm-1.59-2.27h0c0-.35.02-.71,0-1.06-.02-.23.16-.56-.17-.66-.32-.1-.66.06-.92.25-.28.21-.43.51-.44.84-.02.47-.03.94,0,1.4.02.41.56.89,1.03.96.33.05.53-.02.51-.37-.02-.46,0-.91,0-1.37Z"/>
  <path d="m8.06,55.04c-.58-.23-1.2-.11-1.8-.14-.26-.02-.32.16-.32.35,0,.57,0,1.13,0,1.7,0,.29.15.36.43.36.65,0,1.3.01,1.95-.02.37-.02.37.17.35.4-.01.22.08.46-.35.46-1.32-.01-2.64,0-3.96,0-.34,0-.44-.14-.44-.42,0-2.17.01-4.34,0-6.52,0-.28.11-.37.41-.37,1.28,0,2.56.02,3.84,0,.47,0,.35.27.37.5.02.24.03.45-.38.43-.59-.03-1.18,0-1.77,0-.33,0-.46.11-.45.41.02.48.02.95,0,1.43-.02.32.15.39.46.38.43-.01.87.02,1.3-.01.47-.04.79.05.85.51-.2.15-.06.55-.49.54Z"/>
  <path d="m24.55,56c0-.16,0-.31.03-.47.23-1.58.96-2.06,2.68-2.21.6-.05.7-.25.67-.71-.04-.63,0-1.27-.01-1.9,0-.3.13-.39.45-.41,1.14-.05,1.14-.06,1.14.95,0,2.12-.01,4.23,0,6.35,0,.46-.14.64-.67.6-.8-.06-1.61.05-2.41-.06-.36-.05-.67-.17-.96-.34-.53-.51-1-1.04-.93-1.81Zm3.32-.24c.17-.46.05-.94.09-1.41.03-.4-.19-.44-.54-.36-1.13.26-1.49,1.2-1.09,2.46.12.6.53.95,1.18,1.07.25.05.43,0,.42-.29-.02-.49.07-.98-.06-1.47Z"/>
  <path class="cls-2" d="m78.34,37.65c-.66.04-1.29-.06-1.87-.33-.71-.32-1.57-.27-2.23-.73-.56-.39-.8-.79-.61-1.3.2-.52.67-.7,1.25-.7.76,0,1.49.02,2.23.3.83.32,1.74.46,2.63.62.5.09.65.32.59.73-.06.37-.19.72-.38,1.03-.15.23-.38.4-.72.37-.29-.02-.59,0-.89,0Z"/>
  <path class="cls-2" d="m53.11,58.2c.89.62,1.62,1.39,2.43,2.09.34.3.78.29,1.12.53.83.58,1.42,1.35,2.08,2.07.4.44.78.86,1.45.99.27.05.54.23.73.41.51.48,1.01.97,1.47,1.49.19.21.37.53.1.76-.28.25-.57.07-.82-.14-.36-.3-.83-.4-1.27-.55-.66-.22-1.15-.58-1.4-1.18-.42-1.01-1.31-1.66-2.22-2.27-1.17-.78-2.34-1.55-3.32-2.53-.4-.4-.91-.73-1.39-1.05-.24-.16-.4-.33-.46-.58.49-.12.99-.02,1.49-.06Z"/>
  <path d="m65.31,54.38c.19-.17.16-.39.14-.6-.05-.38.13-.49.53-.47.91.05,1.82-.07,2.73.2.62.18.9.54.97,1.04.07.51,0,1-.58,1.31-.5.26-.07.56.06.79.27.49.61.94.99,1.5-.56,0-1.01,0-1.45,0-.3,0-.42-.22-.53-.43-.26-.51-.51-1.04-.78-1.55-.15-.3.1-.34.31-.44.51-.23.48-.68.45-1.09-.03-.33-.25-.57-.63-.66-.34-.08-.56-.03-.55.37.02,1.08,0,2.15.02,3.23,0,.36-.06.52-.53.53-.91.02-.88.05-.92-.8-.03-.69.21-1.41-.23-2.06.21-.29.19-.58,0-.88Z"/>
  <path class="cls-2" d="m81.61,20.69c.71.03,1.26-.06,1.7.35.31.28.28.51-.08.72-.51.3-.9.7-1.3,1.12-.19.2-.47.32-.77.34-.84.06-1.69.1-2.53.13-.25,0-.51-.04-.75-.1-.5-.12-.71-.44-.57-.88.2-.62.53-1.13,1.37-1.16,1.05-.04,2.01-.58,2.92-.51Z"/>
  <path d="m22.86,53.22c.52.04.63.3.6.73-.04.7,0,1.4.02,2.1-.33.36-.08.81-.25,1.21-.3.72-.65.93-1.49,1.06-.97.16-1.68-.09-2.22-.79-.1-.32-.11-.65-.12-.98-.02-.51.07-1.02-.06-1.52.16-.43.05-.87.1-1.31.01-.13-.07-.34.12-.36.41-.04.83-.06,1.23,0,.29.04.06.38.22.54,0,.87,0,1.73,0,2.6-.11.38-.08.72.33.97.32.19.64.16.93,0,.42-.25.35-.66.34-1.04.02-1.05.03-2.1.05-3.15.07-.01.14-.03.21-.04Z"/>
  <path d="m53.11,58.2c-.49.04-1-.05-1.49.06-.57-.15-1.27.16-1.74-.43-.18-.23-.11-.47-.22-.68.02-.93.04-1.86.05-2.79,0-.7.12-1.05,1.23-1.1.68-.03,1.37-.01,2.06-.01q.08.82-.77.82c-.77,0-1.19.61-.88,1.24.07.15.2.14.33.15.27,0,.55.01.82,0,.24-.01.3.08.3.28,0,.22-.11.27-.32.26-.2,0-.39,0-.59,0-.47.02-.74.18-.6.65-.07.77-.02.83.65.91.16,0,.32.04.47.03.56-.07.82.11.7.63Z"/>
  <path d="m11.16,53.29c.36.12.71.17,1.08.05.16-.05.35-.03.52-.03.26,0,.32.15.32.35,0,.21-.08.33-.33.35-.27.01-.54.06-.82.08-.21.02-.46-.02-.53.23-.07.28.15.41.39.51.1.04.22.06.33.09.13.23.4.25.62.35.7.31.91.76.77,1.69-.08.56-.63,1.11-1.24,1.16-.61.05-1.22.02-1.83.03-.25,0-.36-.1-.35-.32,0-.23.17-.25.36-.25.28,0,.55.01.83,0,.31-.02.72.11.81-.32.09-.42-.02-.74-.56-.87-.56-.14-1.07-.38-1.55-.67-.26-.6-.12-1.2-.03-1.8.4-.2.8-.4,1.2-.6Z"/>
  <path d="m75.87,55.84c0-.56,0-1.13,0-1.69.01-.45.25-.69.79-.73.68-.05,1.36-.12,2.05-.1.25,0,.48-.02.46.31-.01.3-.13.46-.49.43-.23-.02-.47,0-.71,0-.57.02-.65.17-.69.88-.03.49.27.5.66.49.26,0,.51,0,.77,0,.23,0,.22.14.23.29,0,.16-.03.28-.25.26-.16,0-.32,0-.47,0-.33,0-.77-.04-.88.25-.13.36-.13.8.15,1.16.13.17.31.19.52.18.33,0,.67,0,1,0,.19,0,.29.06.29.24,0,.17-.01.33-.26.33-.89,0-1.77.06-2.66-.03-.33-.03-.5-.22-.49-.54.01-.58,0-1.16,0-1.75,0,0-.01,0-.02,0Z"/>
  <path class="cls-2" d="m57.69,8.4c-.27-.11-.45-.26-.38-.54.26-.93.28-1.94,1.07-2.71.19-.19.1-.44.09-.66-.02-.5.26-.84.71-1.06.51-.26,1.02-.51,1.6-.62.57-.11.81.18.8.7-.01.64-.43.92-.89,1.3-.99.8-1.79,1.76-2.32,2.88-.15.31-.31.6-.69.72Z"/>
  <path d="m14.11,53.94c-.1-.59.21-.76.83-.69.34.04.7,0,1.04-.01.68.15,1.37.05,2.05.07.26,0,.35.09.33.31-.02.19.03.41-.28.44-.19.02-.39.02-.59,0-.27-.02-.4.07-.39.33.03.67-.08,1.34.09,2-.01.45-.02.91-.03,1.36,0,.14.03.3-.14.37-.44.19-.92.12-1.37.06-.36-.05-.19-.41-.27-.62.29-1.07.08-2.16.14-3.24.01-.27-.21-.24-.4-.25-.34-.03-.7.12-1-.13Z"/>
  <path class="cls-2" d="m15.38,57.56c.08.22-.09.57.27.62.45.06.93.13,1.37-.06.17-.07.14-.24.14-.37.01-.45.02-.91.03-1.36.09-.03.19-.04.26-.09.63-.42,1.26-.85,1.89-1.27.13.5.04,1.01.06,1.52.01.33.03.66.12.98-.34.29-.82.28-1.23.42-.74.25-1.4.6-1.99,1.07-.64.51-1.39.61-2.19.53-.25-.02-.52-.08-.59-.35-.07-.26,0-.51.28-.63.59-.26.93-.81,1.56-1.01Z"/>
  <path d="m71.86,56.11c0-.44,0-.88,0-1.32,0-.71,0-.71-.79-.74-.21,0-.5.11-.52-.25-.02-.3.02-.5.46-.49,1.08.02,2.17.01,3.25,0,.28,0,.42.04.43.34,0,.32-.17.32-.44.32-.84.01-.85.02-.85.77,0,.95-.01,1.91,0,2.86,0,.32,0,.49-.48.52-1.07.06-1.06.09-1.06-.9,0-.37,0-.74,0-1.11Z"/>
  <path class="cls-2" d="m11.06,61.48c-.18,0-.35,0-.53,0-.32.01-.61-.09-.73-.35-.11-.25.15-.41.35-.54.24-.14.32-.36.39-.57.17-.55.57-.91,1.02-.86.66.08,1.25.57,1.25,1.06,0,.68-.4,1.13-1.11,1.2-.21.02-.43,0-.65,0,0,.01,0,.03,0,.04Z"/>
  <path class="cls-2" d="m71.52,50.69c-.57-.08-1.12-.35-1.57-.74-.29-.26-.15-.57.2-.73.23-.11.42-.2.55-.43.29-.53.86-.59,1.3-.12.3.32.54.68.8,1.02.28.36.17.61-.26.77-.31.12-.62.22-1.03.23Z"/>
  <path class="cls-1" d="m18.7,30.65c.03.53.06,1.06-.03,1.59-.45-.38-.76-.83-.96-1.35-.11-.3-.28-.51-.63-.63-.98-.32-1.44-1.11-1.94-1.85-.16-.23-.03-.36.24-.4.27-.03.53.05.69.23.58.67,1.37,1.18,1.87,1.92.14.22.34.53.76.48Z"/>
  <path class="cls-2" d="m9.96,53.89c-.09.6-.22,1.21.03,1.8-.51.21-1.02.41-1.53.62-.26.11-.48.12-.7-.06-.26-.21-.11-.4-.03-.62.08-.21.34-.35.33-.6.43.01.29-.39.49-.54.41-.32.88-.51,1.41-.61Z"/>
  <path class="cls-2" d="m65.31,54.38c.18.29.21.58,0,.88-.45.03-.84-.14-1.22-.32-.21-.1-.42-.2-.66-.04-.13-.25-.26-.51-.2-.8.48.11.97.17,1.46.19.21,0,.42-.03.61.09Z"/>
  <path class="cls-1" d="m46.14,68.69c.01.2,0,.33-.14.39-.12.06-.22.02-.31-.06-.3-.27-.62-.53-.9-.82-.21-.22-.26-.49.06-.68.3-.18.57-.11.76.14.26.33.45.69.52,1.03Z"/>
  <path class="cls-1" d="m51.94,57.54c-.67-.08-.72-.14-.65-.91.49.15.64.49.65.91Z"/>
  <path d="m33.83,55.63c-.12-.89.17-1.64,1.03-2.08,1.53-.79,3.57-.27,3.95,1.52.11.52.06,1.05.02,1.58-.05.71-.87,1.52-1.95,1.73-.81.16-1.82,0-2.44-.81-.46-.6-.73-1.23-.61-1.95Zm3.27.36c-.02-.61.04-1.16-.21-1.67-.12-.24-.25-.48-.63-.45-.34.02-.47.21-.55.46-.29.95-.21,1.91-.03,2.87.02.1.1.19.17.27.31.37.66.36.97-.03.37-.47.2-1.01.28-1.45Z"/>
  <path class="cls-2" d="m19.35,55.04c-.63.42-1.26.85-1.89,1.27-.07.05-.17.06-.26.09-.17-.66-.07-1.33-.09-2-.01-.25.12-.34.39-.33.2.01.39.01.59,0,.31-.03.26-.25.28-.44.02-.22-.07-.31-.33-.31-.68-.02-1.38.08-2.05-.07.03-.06.03-.16.08-.19.99-.46,1.83-1.17,2.95-1.44.74-.18,1.07-.15,1.03.6-.02.4.33.52.83.36.32,0,.54-.12.73-.36.2-.25.46-.46.69-.69.2.17.47.14.7.2.35.09.66.23.68.55.02.33-.16.63-.53.79-.1.04-.18.12-.28.18-.07.01-.14.03-.21.04-.59.12-1.08.44-1.64.64-.16-.16.07-.5-.22-.54-.4-.06-.82-.04-1.23,0-.19.02-.11.23-.12.36-.04.44.06.88-.1,1.31Z"/>
  <path class="cls-2" d="m40.36,34.49c.1.4-.06.63-.45.77-.61.22-1.22.45-1.82.7-.29.12-.44.11-.58-.19-.18-.41-.62-.67-.82-1.09-.19-.39-.16-.69.16-1,.8-.79,1.16-.87,2.15-.33.26.14.53.21.8.33.41.18.73.38.56.82Z"/>
  <path d="m31.02,55.73c0-.67.01-1.34,0-2,0-.29.1-.41.44-.4,1.39.03,1.13-.12,1.14.98.01,1.11-.01,2.22.01,3.32.01.43-.14.63-.64.58-.16-.02-.31-.01-.47,0-.35.03-.49-.1-.49-.42.02-.69,0-1.37,0-2.06Z"/>
  <path class="cls-2" d="m24.29,36.6c-.16-1.32-.09-2.64-.04-3.96.55.05.59.52.74.83.29.6.61,1.2.59,1.88-.02.82-.37,1.16-1.29,1.25Z"/>
  <path d="m32.56,51.32c0,.47-.31.83-.74.84-.41.01-.9-.48-.89-.89.01-.43.38-.78.85-.78.51,0,.78.28.78.84Z"/>
  <path d="m22.29,51.51c-.23.23-.49.44-.69.69-.19.24-.41.37-.73.36.12-.7.49-1.31.94-1.86.25-.3.65-.16.98-.09.2.05.12.2,0,.28-.23.17-.4.37-.52.61Z"/>
  <path class="cls-2" d="m60.93,54.26s.04.01.05.03c.52.82.47.89-.56.9-.04,0-.08,0-.12,0-.29-.04-.81.12-.83-.13-.02-.32.04-.76.43-1,.32.15.65.26,1.02.21Z"/>
  <path class="cls-2" d="m60.93,54.26c-.37.05-.7-.06-1.02-.21,0-.32.17-.61.26-.91.03-.11.14-.19.26-.2.17-.02.16.13.18.22.07.38.4.69.33,1.1Z"/>
  <path class="cls-2" d="m46.65,55.73c0,.46-.01.92,0,1.37.01.35-.18.42-.51.37-.47-.07-1.01-.55-1.03-.96-.03-.47-.02-.94,0-1.4.01-.33.16-.63.44-.84.26-.19.6-.35.92-.25.33.1.15.43.17.66.03.35,0,.7,0,1.06h0Z"/>
  <path class="cls-2" d="m26.32,56.45c-.4-1.26-.04-2.2,1.09-2.46.36-.08.58-.04.54.36-.04.47.08.95-.09,1.41-.56.14-.96.58-1.54.68Z"/>
  <path class="cls-2" d="m26.32,56.45c.58-.1.98-.54,1.54-.68.12.49.03.98.05,1.47.01.28-.17.33-.42.29-.65-.13-1.06-.47-1.18-1.07Z"/>
  <path class="cls-2" d="m21.02,53.9c.55-.2,1.05-.51,1.64-.64-.02,1.05-.03,2.1-.05,3.15-.54-.1-1.06.17-1.6.08,0-.87,0-1.73,0-2.6Z"/>
  <path class="cls-2" d="m21.02,56.5c.54.09,1.06-.18,1.6-.08,0,.38.08.79-.34,1.04-.28.17-.61.2-.93,0-.41-.25-.44-.59-.33-.97Z"/>
  <path class="cls-2" d="m37.11,55.99c-.08.44.09.99-.28,1.45-.31.38-.66.4-.97.03-.07-.08-.15-.17-.17-.27-.18-.96-.26-1.92.03-2.87.08-.25.21-.44.55-.46.38-.02.51.21.63.45.25.51.2,1.06.21,1.67Z"/>
</svg>